<svg id="Layer_1" data-name="Layer 1" xmlns="http://www.w3.org/2000/svg" viewBox="0 0 84.58 65.2"><path d="M7.17,29.43H78.83A4.33,4.33,0,0,0,82.06,28a4.17,4.17,0,0,0,1-3.38C80.71,10.79,63.51.36,43,.36S5.28,10.79,3.05,24.53a4.24,4.24,0,0,0,1,3.39,3.83,3.83,0,0,0,3.14,1.51Zm-.63-4.28C8.51,13,24.19,3.92,43,3.92S77.49,13,79.46,25.15a.71.71,0,0,1-.18.53.69.69,0,0,1-.45.18H7.17a.53.53,0,0,1-.45-.18.71.71,0,0,1-.18-.53Zm73.1,24.26A5.19,5.19,0,0,0,80.8,46.2V44.15a5.23,5.23,0,0,0-5.28-5.26H10.3A5.23,5.23,0,0,0,5,44.15V46.2a5.06,5.06,0,0,0,1.16,3.21A8.39,8.39,0,0,0,2.87,56v1.43a8,8,0,0,0,7.88,8.11H75.07A8,8,0,0,0,83,57.44V56A8.39,8.39,0,0,0,79.64,49.41ZM10.3,47.9a1.7,1.7,0,0,1-1.7-1.7h0V44.15a1.7,1.7,0,0,1,1.7-1.7H75.52a1.7,1.7,0,0,1,1.7,1.7V46.2a1.7,1.7,0,0,1-1.7,1.7H44.61a5,5,0,0,0-5,5V57a.82.82,0,0,1-.8.81h0A.82.82,0,0,1,38,57h0v-4.1a5,5,0,0,0-5-5H31.8a4.38,4.38,0,0,0-4.39,4.36v1a2.51,2.51,0,0,1-5,0v-1A4.38,4.38,0,0,0,18,47.9H10.3Zm69.07,9.54A4.47,4.47,0,0,1,75.07,62H10.75a4.41,4.41,0,0,1-4.3-4.55V56a4.41,4.41,0,0,1,4.3-4.55h7.17a.8.8,0,0,1,.8.8v1a6.1,6.1,0,0,0,12.19,0v-1a.8.8,0,0,1,.8-.8h1.17a1.41,1.41,0,0,1,1.43,1.43V57a4.39,4.39,0,0,0,8.78,0v-4.1a1.41,1.41,0,0,1,1.43-1.43H75.07A4.47,4.47,0,0,1,79.37,56v1.43Zm5.46-25.87A5.34,5.34,0,0,0,81,30a5.23,5.23,0,0,0-3.85,1.6l-2.6,2.59a2,2,0,0,1-2.68,0l-2.69-2.68a5.37,5.37,0,0,0-3.85-1.6,5.23,5.23,0,0,0-3.86,1.6L59,34a2,2,0,0,1-2.69,0l-2.51-2.41a5.42,5.42,0,0,0-7.7,0l-2.6,2.59a2,2,0,0,1-2.69,0l-2.6-2.59a5.42,5.42,0,0,0-7.7,0l-2.33,2.32a2,2,0,0,1-2.69,0l-2-2a5.38,5.38,0,0,0-3.85-1.61,5.2,5.2,0,0,0-3.85,1.61l-2,2a2,2,0,0,1-2.69,0L9,31.93a5.43,5.43,0,0,0-7.71,0,1.73,1.73,0,0,0,0,2.5,1.75,1.75,0,0,0,2.51,0,2,2,0,0,1,2.69,0l2.06,2a5.35,5.35,0,0,0,3.85,1.6,5.19,5.19,0,0,0,3.85-1.6l2-2a2,2,0,0,1,2.69,0l2,2a5.37,5.37,0,0,0,3.85,1.6,5.23,5.23,0,0,0,3.86-1.6l2.33-2.32a2,2,0,0,1,2.68,0l2.6,2.59A5.37,5.37,0,0,0,42,38.35a5.23,5.23,0,0,0,3.86-1.6l2.59-2.59a2,2,0,0,1,2.69,0l2.51,2.5a5.35,5.35,0,0,0,3.85,1.6,5.21,5.21,0,0,0,3.85-1.6l2.51-2.5a2,2,0,0,1,2.69,0l2.69,2.68a5.53,5.53,0,0,0,3.85,1.6A5.35,5.35,0,0,0,77,36.84l2.6-2.59a2,2,0,0,1,2.69,0,1.75,1.75,0,0,0,2.51,0A2,2,0,0,0,84.83,31.57Z" transform="translate(-0.72 -0.36)" style="fill:#fff"/><path d="M17.38,19.44a1.73,1.73,0,0,0,1.34-.62L20,17.3a1.78,1.78,0,0,0-2.78-2.23L16,16.59a1.73,1.73,0,0,0,.27,2.5,1.81,1.81,0,0,0,1.16.35Zm9.4,2.68a1.76,1.76,0,0,0,1.35.62,1.86,1.86,0,0,0,1.16-.44,1.81,1.81,0,0,0,.27-2.5l-.89-1.07a1.85,1.85,0,0,0-2.51-.27,1.81,1.81,0,0,0-.27,2.5Zm2-9.63a1.84,1.84,0,0,0,1.52.89,1.74,1.74,0,0,0,.9-.27,1.69,1.69,0,0,0,.62-2.41l-.89-1.6a1.71,1.71,0,0,0-2.42-.63,1.69,1.69,0,0,0-.63,2.41Zm10.12,7.67a1.9,1.9,0,0,0,1.43.71A1.79,1.79,0,0,0,41.75,18l-1.08-1.43a1.77,1.77,0,0,0-2.51-.36,1.75,1.75,0,0,0-.36,2.5l1.08,1.43Zm1.34-8.74a1.53,1.53,0,0,0,.63.09,1.84,1.84,0,0,0,1.7-1.16l.72-1.79a1.78,1.78,0,0,0-1.08-2.32,1.8,1.8,0,0,0-2.33,1.07L39.15,9.1a1.9,1.9,0,0,0,1.07,2.32Zm10.22,12.3a2,2,0,0,0,1-.26l1.52-1a1.83,1.83,0,0,0,.54-2.5A1.85,1.85,0,0,0,51,19.44l-1.52,1a1.83,1.83,0,0,0-.54,2.5A2.15,2.15,0,0,0,50.44,23.72Zm.44-11.06a1.91,1.91,0,0,0,.72.18,1.63,1.63,0,0,0,1.61-1.07l.9-1.87a1.7,1.7,0,0,0-.9-2.32,1.72,1.72,0,0,0-2.33.89L50,10.35A1.74,1.74,0,0,0,50.88,12.66Zm9.23,5.27a1.9,1.9,0,0,0,1.43.71A1.79,1.79,0,0,0,63,15.79L61.9,14.36A1.79,1.79,0,0,0,59,16.5Zm9.94,4a1.14,1.14,0,0,0,.54.09,1.73,1.73,0,0,0,1.7-1.25L73,18.37a1.81,1.81,0,0,0-3.49-1L68.8,19.8A1.73,1.73,0,0,0,70.05,21.94Z" transform="translate(-0.72 -0.36)" style="fill:#fff"/></svg>